<?xml version="1.0" encoding="UTF-8" standalone="no" ?>
<!DOCTYPE svg PUBLIC "-//W3C//DTD SVG 1.1//EN" "http://www.w3.org/Graphics/SVG/1.1/DTD/svg11.dtd">
<svg xmlns="http://www.w3.org/2000/svg" xmlns:xlink="http://www.w3.org/1999/xlink" version="1.1" width="400" height="400" viewBox="0 0 400 400" xml:space="preserve">
<desc>Created with Fabric.js 5.2.4</desc>
<defs>
</defs>
<g transform="matrix(1 0 0 1 200 200)" id="f0623a00-6d17-4c10-89d5-92d3cecf3cef"  >
<rect style="stroke: none; stroke-width: 1; stroke-dasharray: none; stroke-linecap: butt; stroke-dashoffset: 0; stroke-linejoin: miter; stroke-miterlimit: 4; fill: rgb(255,255,255); fill-rule: nonzero; opacity: 1; visibility: hidden;" vector-effect="non-scaling-stroke"  x="-200" y="-200" rx="0" ry="0" width="400" height="400" />
</g>
<g transform="matrix(Infinity NaN NaN Infinity 0 0)" id="ec501870-d1f4-42aa-a00b-e63b20cb1b02"  >
</g>
<g transform="matrix(0.37 0 0 0.37 200 200)"  >
<g style="" vector-effect="non-scaling-stroke"   >
		<g transform="matrix(0.13 0 0 -0.13 -60.47 0.12)"  >
<path style="stroke: none; stroke-width: 1; stroke-dasharray: none; stroke-linecap: butt; stroke-dashoffset: 0; stroke-linejoin: miter; stroke-miterlimit: 4; fill: rgb(0,0,0); fill-rule: nonzero; opacity: 1;" vector-effect="non-scaling-stroke"  transform=" translate(-2382, -3634.13)" d="M 2369 4183 C 2369 4179 2369 3976 2370 3734 L 2371 3292 L 2344 3271 C 2320 3252 2308 3250 2263 3256 L 2210 3262 L 2210 3171 L 2210 3080 L 2288 3080 C 2341 3080 2372 3085 2386 3095 C 2396 3103 2411 3110 2419 3110 C 2436 3110 2510 3168 2510 3182 C 2510 3187 2516 3198 2524 3205 C 2544 3226 2549 3319 2552 3770 L 2554 4185 L 2462 4188 C 2412 4189 2370 4187 2369 4183 z" stroke-linecap="round" />
</g>
		<g transform="matrix(0.13 0 0 -0.13 8.71 -0.11)"  >
<path style="stroke: none; stroke-width: 1; stroke-dasharray: none; stroke-linecap: butt; stroke-dashoffset: 0; stroke-linejoin: miter; stroke-miterlimit: 4; fill: rgb(0,0,0); fill-rule: nonzero; opacity: 1;" vector-effect="non-scaling-stroke"  transform=" translate(-2900.81, -3635.83)" d="M 3030 4171 C 3025 4160 3020 4142 3020 4130 C 3020 4118 3013 4102 3005 4094 C 2997 4085 2990 4069 2990 4057 C 2990 4045 2983 4026 2975 4016 C 2967 4005 2960 3988 2960 3977 C 2960 3967 2953 3952 2945 3944 C 2937 3935 2930 3919 2930 3907 C 2930 3895 2923 3876 2915 3866 C 2907 3855 2900 3838 2900 3827 C 2900 3817 2893 3802 2885 3794 C 2877 3785 2870 3769 2870 3757 C 2870 3745 2863 3726 2855 3716 C 2847 3705 2840 3689 2840 3679 C 2840 3670 2833 3657 2825 3650 C 2817 3643 2810 3627 2810 3615 C 2810 3602 2802 3577 2793 3558 C 2784 3540 2771 3513 2763 3498 C 2756 3484 2750 3462 2750 3451 C 2750 3439 2746 3430 2741 3430 C 2736 3430 2729 3418 2726 3403 C 2722 3387 2713 3362 2705 3345 C 2674 3276 2660 3241 2660 3227 C 2660 3219 2653 3207 2645 3200 C 2637 3193 2630 3180 2630 3170 C 2630 3160 2623 3147 2615 3140 C 2606 3133 2600 3117 2602 3106 C 2605 3088 2613 3085 2668 3082 C 2742 3079 2780 3096 2780 3134 C 2780 3147 2787 3163 2795 3170 C 2803 3177 2810 3193 2810 3205 C 2810 3218 2818 3243 2827 3262 C 2836 3280 2849 3307 2857 3322 C 2864 3336 2870 3356 2870 3367 C 2870 3377 2877 3394 2885 3404 C 2893 3415 2900 3431 2900 3441 C 2900 3450 2907 3463 2915 3470 C 2923 3477 2930 3490 2930 3500 C 2930 3510 2937 3531 2945 3546 C 2953 3562 2960 3582 2960 3591 C 2960 3600 2967 3613 2975 3620 C 2983 3627 2990 3642 2990 3654 C 2990 3665 2997 3684 3005 3694 C 3013 3705 3020 3724 3020 3736 C 3020 3748 3027 3763 3035 3770 C 3043 3777 3050 3792 3050 3804 C 3050 3815 3057 3834 3065 3844 C 3073 3855 3080 3872 3080 3881 C 3080 3891 3088 3913 3097 3932 C 3106 3950 3119 3977 3127 3992 C 3134 4006 3140 4027 3140 4038 C 3140 4049 3147 4063 3155 4070 C 3163 4077 3170 4091 3170 4102 C 3170 4113 3177 4128 3185 4136 C 3193 4145 3200 4160 3200 4171 C 3200 4188 3192 4190 3120 4190 C 3052 4190 3039 4187 3030 4171 z" stroke-linecap="round" />
</g>
		
</g>
</g>
</svg>